<svg xmlns="http://www.w3.org/2000/svg" viewBox="0 0 692 492"><title>sms-svg</title><rect x="175" y="45" width="396" height="51" rx="25.5" ry="25.5" style="fill:#f5f5f5"/><rect x="274" y="419" width="334" height="34" rx="17" ry="17" style="fill:#f5f5f5"/><rect x="105" y="348" width="185" height="51" rx="25.5" ry="25.5" style="fill:#f5f5f5"/><rect x="470" y="223" width="185" height="51" rx="25.5" ry="25.5" style="fill:#f5f5f5"/><circle cx="122" cy="72" r="27" style="fill:#f5f5f5"/><circle cx="436" cy="133" r="14.5" style="fill:none;stroke:#f5f5f5;stroke-miterlimit:10;stroke-width:5px"/><circle cx="324.5" cy="399.5" r="10" style="fill:none;stroke:#f5f5f5;stroke-miterlimit:10;stroke-width:5px"/><circle cx="630" cy="118" r="14.5" style="fill:none;stroke:#c30005;stroke-miterlimit:10;stroke-width:3px;opacity:0.31"/><circle cx="164" cy="286" r="9.5" style="fill:none;stroke:#00b50e;stroke-miterlimit:10;stroke-width:3px;opacity:0.31"/><polygon points="25.5 116.14 60.5 129 60.5 99 25.5 116.14" style="fill:none;stroke:#00b50e;stroke-miterlimit:10;stroke-width:3px;opacity:0.38"/><polygon points="573.5 318.14 608.5 331 608.5 301 573.5 318.14" style="fill:none;stroke:#e8ff0a;stroke-miterlimit:10;stroke-width:3px;opacity:0.56"/><path d="M249,187.38,373.5,285.5,498,187.38V313.51C498,319,500,337,478.63,337c-25.13.5-216.94,0-216.94,0s-13.19.23-12.69-16.63S249,187.38,249,187.38Z" style="fill:#e8e8e8"/><path d="M249,316l124-99,125,99s3,21-14,21H263S248,339,249,316Z" style="fill:#f5f5f5"/><path d="M249,187l124,99,125-99s3-21-14-21H263S248,164,249,187Z" style="fill:#806ed6"/></svg>